{
  "accessors": [
    {
      "bufferView": 2,
      "componentType": 5126,
      "count": 480,
      "max": [
        0.24000000953674316,
        0.24000003933906555,
        0.012164122425019741
      ],
      "min": [
        -0.23999997973442078,
        -0.2399999499320984,
        -0.0021641217172145844
      ],
      "type": "VEC3"
    },
    {
      "bufferView": 2,
      "byteOffset": 5760,
      "componentType": 5126,
      "count": 480,
      "max": [
        1.0,
        1.0,
        1.0
      ],
      "min": [
        -1.0,
        -1.0,
        -1.0
      ],
      "type": "VEC3"
    },
    {
      "bufferView": 1,
      "componentType": 5126,
      "count": 480,
      "max": [
        1.0,
        1.0
      ],
      "min": [
        0.0,
        0.0
      ],
      "type": "VEC2"
    },
    {
      "bufferView": 0,
      "componentType": 5125,
      "count": 768,
      "type": "SCALAR"
    },
    {
      "bufferView": 2,
      "byteOffset": 11520,
      "componentType": 5126,
      "count": 480,
      "max": [
        0.24000000953674316,
        0.24000003933906555,
        0.012164122425019741
      ],
      "min": [
        -0.23999997973442078,
        -0.2399999499320984,
        -0.0021641217172145844
      ],
      "type": "VEC3"
    },
    {
      "bufferView": 2,
      "byteOffset": 17280,
      "componentType": 5126,
      "count": 480,
      "max": [
        1.0,
        1.0,
        1.0
      ],
      "min": [
        -1.0,
        -1.0,
        -1.0
      ],
      "type": "VEC3"
    },
    {
      "bufferView": 1,
      "byteOffset": 3840,
      "componentType": 5126,
      "count": 480,
      "max": [
        1.0,
        1.0
      ],
      "min": [
        0.0,
        0.0
      ],
      "type": "VEC2"
    },
    {
      "bufferView": 0,
      "byteOffset": 3072,
      "componentType": 5125,
      "count": 768,
      "type": "SCALAR"
    },
    {
      "bufferView": 2,
      "byteOffset": 23040,
      "componentType": 5126,
      "count": 88,
      "max": [
        0.375,
        0.375,
        1.5894110202789307
      ],
      "min": [
        -0.375,
        -0.375,
        -2.7924084663391113
      ],
      "type": "VEC3"
    },
    {
      "bufferView": 2,
      "byteOffset": 24096,
      "componentType": 5126,
      "count": 88,
      "max": [
        1.0,
        1.0,
        1.0
      ],
      "min": [
        -1.0,
        -1.0,
        0.0
      ],
      "type": "VEC3"
    },
    {
      "bufferView": 1,
      "byteOffset": 7680,
      "componentType": 5126,
      "count": 88,
      "max": [
        0.9930239915847778,
        1.004899263381958
      ],
      "min": [
        -0.008037209510803223,
        0.0038382411003112793
      ],
      "type": "VEC2"
    },
    {
      "bufferView": 0,
      "byteOffset": 6144,
      "componentType": 5125,
      "count": 132,
      "type": "SCALAR"
    }
  ],
  "asset": {
    "extras": {
      "author": "danielpaulse (https://sketchfab.com/danielpaulse)",
      "license": "CC-BY-SA-4.0 (http://creativecommons.org/licenses/by-sa/4.0/)",
      "source": "https://sketchfab.com/3d-models/chess-board-95f4c032011b4a3297623a9e5073f0f1",
      "title": "Chess Board"
    },
    "generator": "Sketchfab-12.68.0",
    "version": "2.0"
  },
  "bufferViews": [
    {
      "buffer": 0,
      "byteLength": 6672,
      "name": "floatBufferViews",
      "target": 34963
    },
    {
      "buffer": 0,
      "byteLength": 8384,
      "byteOffset": 6672,
      "byteStride": 8,
      "name": "floatBufferViews",
      "target": 34962
    },
    {
      "buffer": 0,
      "byteLength": 25152,
      "byteOffset": 15056,
      "byteStride": 12,
      "name": "floatBufferViews",
      "target": 34962
    }
  ],
  "buffers": [
    {
      "byteLength": 40208,
      "uri": "scene.bin"
    }
  ],
  "images": [
    {
      "uri": "textures/Marble.004_baseColor.jpeg"
    }
  ],
  "materials": [
    {
      "doubleSided": true,
      "name": "White_Square.012",
      "pbrMetallicRoughness": {
        "baseColorFactor": [
          0.882937,
          1.0,
          1.0,
          1.0
        ],
        "metallicFactor": 0.0,
        "roughnessFactor": 0.7157083233690475
      }
    },
    {
      "doubleSided": true,
      "name": "Black_Square.010",
      "pbrMetallicRoughness": {
        "baseColorFactor": [
          0.00762073,
          0.00560855,
          0.00803688,
          1.0
        ],
        "metallicFactor": 0.0,
        "roughnessFactor": 0.9981890040408093
      }
    },
    {
      "doubleSided": true,
      "name": "Marble.004",
      "pbrMetallicRoughness": {
        "baseColorTexture": {
          "index": 0
        },
        "metallicFactor": 0.0,
        "roughnessFactor": 0.7883398951148328
      }
    }
  ],
  "meshes": [
    {
      "name": "Board.003_White Square.012_0",
      "primitives": [
        {
          "attributes": {
            "NORMAL": 1,
            "POSITION": 0,
            "TEXCOORD_0": 2
          },
          "indices": 3,
          "material": 0,
          "mode": 4
        }
      ]
    },
    {
      "name": "Board.003_Black Square.010_0",
      "primitives": [
        {
          "attributes": {
            "NORMAL": 5,
            "POSITION": 4,
            "TEXCOORD_0": 6
          },
          "indices": 7,
          "material": 1,
          "mode": 4
        }
      ]
    },
    {
      "name": "Frame 02.002_Marble.004_0",
      "primitives": [
        {
          "attributes": {
            "NORMAL": 9,
            "POSITION": 8,
            "TEXCOORD_0": 10
          },
          "indices": 11,
          "material": 2,
          "mode": 4
        }
      ]
    }
  ],
  "nodes": [
    {
      "children": [
        1
      ],
      "matrix": [
        1.0,
        0.0,
        0.0,
        0.0,
        0.0,
        2.220446049250313e-16,
        -1.0,
        0.0,
        0.0,
        1.0,
        2.220446049250313e-16,
        0.0,
        0.0,
        0.0,
        0.0,
        1.0
      ],
      "name": "Sketchfab_model"
    },
    {
      "children": [
        2
      ],
      "matrix": [
        1.0,
        0.0,
        0.0,
        0.0,
        0.0,
        0.0,
        1.0,
        0.0,
        0.0,
        -1.0,
        0.0,
        0.0,
        0.0,
        0.0,
        0.0,
        1.0
      ],
      "name": "ChessBoard.fbx"
    },
    {
      "children": [
        3,
        6,
        9,
        12
      ],
      "name": "RootNode"
    },
    {
      "children": [
        4
      ],
      "matrix": [
        -29.086475475513453,
        -5.518891312514738,
        -95.51710452695974,
        0.0,
        56.639325227581224,
        79.46722445014962,
        -21.839118021427105,
        0.0,
        77.11006314690565,
        -60.45246857620625,
        -19.988350426321716,
        0.0,
        447.92724609375,
        735.3929443359375,
        -88.14208221435547,
        1.0
      ],
      "name": "Sky Area Light.003"
    },
    {
      "children": [
        5
      ],
      "matrix": [
        1.0,
        0.0,
        0.0,
        0.0,
        0.0,
        2.220446049250313e-16,
        1.0,
        0.0,
        0.0,
        -1.0,
        2.220446049250313e-16,
        0.0,
        0.0,
        0.0,
        0.0,
        1.0
      ],
      "name": "Object_4"
    },
    {
      "name": "Object_5"
    },
    {
      "children": [
        7
      ],
      "matrix": [
        25.35851333487501,
        38.542981880817685,
        88.7208139237974,
        0.0,
        -72.7498078995202,
        68.048341427047,
        -8.768619025305396,
        0.0,
        -63.75272961784209,
        -62.320630271636894,
        45.295993011980734,
        0.0,
        -479.8049011230469,
        458.74237060546875,
        -72.82746124267578,
        1.0
      ],
      "name": "Spring Green Area Light.003"
    },
    {
      "children": [
        8
      ],
      "matrix": [
        1.0,
        0.0,
        0.0,
        0.0,
        0.0,
        2.220446049250313e-16,
        1.0,
        0.0,
        0.0,
        -1.0,
        2.220446049250313e-16,
        0.0,
        0.0,
        0.0,
        0.0,
        1.0
      ],
      "name": "Object_7"
    },
    {
      "name": "Object_8"
    },
    {
      "children": [
        10
      ],
      "matrix": [
        -29.08646461622886,
        -5.5188995796634055,
        -95.51711534357838,
        0.0,
        56.639314338186786,
        79.46723353753056,
        -21.839113196090334,
        0.0,
        77.11008196174228,
        -60.45246052633972,
        -19.98834035846589,
        0.0,
        901.7345581054688,
        440.7289123535156,
        406.48040771484375,
        1.0
      ],
      "name": "Sun Light.003"
    },
    {
      "children": [
        11
      ],
      "matrix": [
        1.0,
        0.0,
        0.0,
        0.0,
        0.0,
        2.220446049250313e-16,
        1.0,
        0.0,
        0.0,
        -1.0,
        2.220446049250313e-16,
        0.0,
        0.0,
        0.0,
        0.0,
        1.0
      ],
      "name": "Object_10"
    },
    {
      "name": "Object_11"
    },
    {
      "children": [
        13,
        14,
        15
      ],
      "matrix": [
        100.0,
        0.0,
        0.0,
        0.0,
        0.0,
        -1.629206793918314e-05,
        -99.99999999999868,
        0.0,
        0.0,
        99.9996871948229,
        -1.6292016976751384e-05,
        0.0,
        0.0,
        0.0,
        0.0,
        1.0
      ],
      "name": "Board.003"
    },
    {
      "mesh": 0,
      "name": "Board.003_White Square.012_0"
    },
    {
      "mesh": 1,
      "name": "Board.003_Black Square.010_0"
    },
    {
      "children": [
        16
      ],
      "matrix": [
        0.8133333325386047,
        0.0,
        0.0,
        0.0,
        0.0,
        0.8133333325386047,
        0.0,
        0.0,
        0.0,
        0.0,
        0.006000018212944269,
        0.0,
        0.0,
        0.0,
        0.0,
        1.0
      ],
      "name": "Frame 02.002"
    },
    {
      "mesh": 2,
      "name": "Frame 02.002_Marble.004_0"
    }
  ],
  "samplers": [
    {
      "magFilter": 9729,
      "minFilter": 9987,
      "wrapS": 10497,
      "wrapT": 10497
    }
  ],
  "scene": 0,
  "scenes": [
    {
      "name": "Sketchfab_Scene",
      "nodes": [
        0
      ]
    }
  ],
  "textures": [
    {
      "sampler": 0,
      "source": 0
    }
  ]
}
